PathFileType  4	(X/Y/Z) C:\Users\antoi\Documents\MyRepositories\mobilecap\ResultsAnalysis
DataRate	CameraRate	NumFrames	NumMarkers	Units	OrigDataRate	OrigDataStartFrame	OrigNumFrames
100.0	100.0	4	51	mm	100.0	73	291
Frame#	Time	r_knee			r_shank_antsup			r_ankle			r_calc			r_5meta			r_toe			L_knee			L_shank_antsup			L_ankle			L_calc			L_5meta			L_toe			r_sh2			r_sh3			r_sh4			L_sh2			L_sh3			r_thigh1			r_thigh2			r_thigh3			r_thigh4			r_thigh5			L_thigh1			L_thigh2			L_thigh3			L_thigh4			r.ASIS			r.PSIS			L.ASIS			L.PSIS			C7			R_Shoulder			L_Shoulder			R_Sternum			L_Sternum			R_humerus			R_elbow_med			R_elbow_lat			R_forearm			R_wrist_radius			R_wrist_ulna			L_humerus			L_elbow_med			L_elbow_lat			L_forearm			L_wrist_radius			L_wrist_ulna			R_HJC			L_HJC			R_HJC_reg			L_HJC_reg			
		X1	Y1	Z1	X2	Y2	Z2	X3	Y3	Z3	X4	Y4	Z4	X5	Y5	Z5	X6	Y6	Z6	X7	Y7	Z7	X8	Y8	Z8	X9	Y9	Z9	X10	Y10	Z10	X11	Y11	Z11	X12	Y12	Z12	X13	Y13	Z13	X14	Y14	Z14	X15	Y15	Z15	X16	Y16	Z16	X17	Y17	Z17	X18	Y18	Z18	X19	Y19	Z19	X20	Y20	Z20	X21	Y21	Z21	X22	Y22	Z22	X23	Y23	Z23	X24	Y24	Z24	X25	Y25	Z25	X26	Y26	Z26	X27	Y27	Z27	X28	Y28	Z28	X29	Y29	Z29	X30	Y30	Z30	X31	Y31	Z31	X32	Y32	Z32	X33	Y33	Z33	X34	Y34	Z34	X35	Y35	Z35	X36	Y36	Z36	X37	Y37	Z37	X38	Y38	Z38	X39	Y39	Z39	X40	Y40	Z40	X41	Y41	Z41	X42	Y42	Z42	X43	Y43	Z43	X44	Y44	Z44	X45	Y45	Z45	X46	Y46	Z46	X47	Y47	Z47	X48	Y48	Z48	X49	Y49	Z49	X50	Y50	Z50	X51	Y51	Z51	

73	0.72000000	-879.91181	677.02383	-426.94767	-869.15589	601.14351	-435.30418	-1151.92432	424.03744	-443.66381	-1219.97627	411.46464	-490.37472	-1074.85206	350.45180	-412.29081	-1026.64681	353.86862	-464.33112	-883.62271	669.12190	-726.26793	-893.36934	575.02607	-703.78648	-1157.65351	423.86472	-693.12373	-1227.80793	403.66398	-644.04511	-1085.56192	351.18490	-727.87450	-1028.77883	353.67537	-680.13425	-958.66901	530.84924	-427.99432	-908.65606	658.00144	-403.73517	-1008.50433	592.79880	-399.75382	-936.20314	638.21900	-749.71159	-1028.24316	556.50336	-751.62977	-977.23074	900.07537	-383.98836	-908.40736	812.39474	-398.10126	-947.55131	754.80191	-401.61738	-1067.82542	836.32361	-404.52931	-995.02410	745.88744	-426.82692	-995.21234	920.62943	-772.51177	-916.13982	808.95366	-751.23202	-1090.99866	861.58867	-757.67121	-1011.60235	750.26041	-723.57376	-977.69964	1026.07088	-471.50159	-1155.48530	1146.63961	-534.18725	-987.31950	1032.52031	-688.75851	-1158.75004	1144.26611	-617.16744	-833.07224	1464.32789	-576.37233	-786.46034	1405.83761	-436.72834	-794.74799	1403.68398	-712.93320	-743.41564	1353.93580	-560.10107	-752.27424	1349.09644	-590.71197	-774.33889	1302.36538	-375.70622	-848.73920	1090.70417	-338.84280	-808.07350	1116.51560	-288.48844	-717.69575	1079.52798	-303.41792	-614.86407	988.85737	-337.52638	-630.73999	965.56122	-311.10611	-782.61945	1315.58698	-784.13925	-804.30975	1085.02363	-806.33787	-771.50939	1121.31990	-856.68830	-671.81038	1070.82810	-839.71469	-578.88106	994.36253	-800.65485	-594.57544	967.11385	-826.21301	-1089.93060	983.89649	-472.88571	-1096.63847	989.80477	-680.20022	-1072.31878	1003.67050	-496.67333	-1077.96151	999.56774	-640.09728	
74	0.73000000	-877.29495	674.60350	-428.37658	-867.18373	598.55778	-436.76664	-1151.55859	424.12986	-444.40415	-1219.65535	411.69969	-490.81873	-1074.79819	350.43593	-412.47594	-1026.56356	353.63719	-464.52550	-881.16752	666.82467	-725.97886	-891.63523	572.63557	-703.43066	-1157.31347	423.64942	-693.10945	-1227.55848	403.61866	-644.19956	-1085.62801	351.00182	-727.84317	-1028.71712	353.31241	-680.25250	-957.20245	529.07108	-429.00481	-906.30194	655.71445	-405.01313	-1006.57138	591.44999	-400.72730	-933.94029	636.05022	-749.14030	-1026.63377	554.90860	-750.86370	-972.94968	898.09821	-384.72549	-904.80565	810.02223	-399.14903	-944.53673	752.55257	-402.84829	-1064.11322	835.03981	-405.73197	-991.99948	743.89723	-428.10944	-991.30033	918.70106	-772.51276	-912.88015	806.66526	-751.09905	-1087.53088	860.56703	-756.86624	-1008.76768	748.66548	-723.22392	-972.77412	1024.66918	-471.78612	-1150.41080	1145.86474	-534.20684	-982.55648	1031.40995	-689.08085	-1153.71174	1143.52839	-617.36914	-830.13506	1464.57568	-576.88482	-782.10398	1407.50074	-438.71733	-790.24377	1405.16447	-712.23730	-739.15625	1354.67621	-560.82868	-747.46342	1349.87275	-591.06533	-764.78532	1306.63692	-376.61548	-827.50539	1092.36759	-334.80598	-788.07506	1121.16242	-285.03130	-695.11383	1092.16014	-301.85385	-585.47969	1011.51830	-338.12313	-598.66694	986.43803	-311.61666	-772.52243	1319.85359	-783.90609	-780.35154	1088.57906	-808.93310	-749.61431	1127.94384	-859.22005	-646.34630	1086.02899	-839.64169	-547.87987	1018.65673	-798.32864	-560.43985	990.17543	-824.44752	-1085.18331	982.83726	-473.18420	-1091.99706	988.96964	-680.48909	-1067.54982	1002.62556	-496.94376	-1073.24400	998.59484	-640.40290	
75	0.74000000	-875.10087	672.46740	-429.67576	-865.67122	596.16303	-438.05578	-1151.20451	424.33579	-444.79251	-1219.40895	411.82203	-491.21339	-1074.77387	350.45471	-412.58879	-1026.52750	353.37300	-464.59330	-879.16514	664.56534	-725.43017	-890.38717	570.33054	-702.81238	-1157.22192	423.14705	-692.94471	-1227.60385	403.24217	-644.19861	-1085.80826	350.73298	-727.85807	-1028.77939	352.98662	-680.37706	-956.07774	527.39717	-430.07973	-904.54837	653.95178	-405.93564	-1005.15892	590.24035	-401.58951	-932.13590	633.98769	-748.59665	-1025.38073	553.43187	-750.42560	-968.29023	896.81030	-385.38214	-901.21115	808.08575	-399.95923	-941.65095	750.99885	-404.03261	-1060.30516	834.77141	-407.01539	-989.10364	742.83451	-429.36257	-986.95145	917.28258	-772.47197	-909.65738	804.62691	-750.90759	-1083.77842	860.51868	-756.27711	-1006.17486	747.58546	-722.66241	-967.21113	1024.26448	-471.76121	-1144.64667	1146.03590	-534.18367	-977.12199	1031.13811	-689.31082	-1148.09391	1143.71159	-617.42034	-826.84057	1465.98010	-577.33461	-777.37509	1410.68908	-440.82002	-785.20286	1408.07614	-711.25582	-734.48900	1356.70305	-561.49016	-741.98793	1352.00648	-591.55051	-755.11193	1312.63369	-377.61148	-806.42772	1096.68716	-330.40487	-768.43072	1128.74009	-280.94914	-673.70906	1107.65807	-299.82671	-558.73155	1037.13759	-338.83816	-569.03248	1011.16405	-311.70741	-762.03754	1325.83904	-783.58784	-757.41900	1095.21705	-814.32142	-728.10826	1137.44789	-862.00554	-622.27575	1104.18521	-840.19979	-519.31121	1046.20227	-796.57117	-528.57927	1016.72133	-823.26891	-1079.79831	982.78082	-473.25926	-1086.70338	988.98565	-680.55886	-1062.05855	1002.51358	-496.80932	-1068.00753	998.50271	-640.43297	
76	0.75000000	-873.29893	670.65210	-430.82456	-864.22400	594.20066	-438.73181	-1150.77785	424.58577	-444.97467	-1219.26538	411.92357	-491.72598	-1074.80277	350.51760	-412.68980	-1026.47948	353.10266	-464.74308	-877.71648	662.47157	-724.74926	-889.62443	568.12418	-702.13354	-1157.38913	422.49806	-692.65799	-1227.88222	402.61574	-644.10612	-1086.07136	350.47685	-728.00155	-1028.94069	352.71374	-680.45314	-955.16911	525.87553	-431.03032	-902.85454	652.48528	-406.58896	-1003.83748	589.06602	-402.63731	-930.81486	632.01587	-748.14578	-1024.53477	552.14397	-750.36649	-963.41144	896.20071	-385.78322	-897.64000	806.39804	-400.75633	-938.81839	750.14046	-405.15804	-1056.31842	835.58662	-408.39603	-986.26026	742.64987	-430.52244	-982.11352	916.51904	-772.48751	-906.48758	802.80745	-750.67492	-1079.70351	861.43215	-755.72892	-1003.78105	747.20076	-722.14160	-960.91143	1024.95909	-471.69614	-1138.16149	1147.23696	-534.28465	-970.96435	1031.94048	-689.77758	-1141.79446	1144.87319	-617.44500	-823.17662	1468.73307	-577.81813	-772.17106	1415.68512	-442.77664	-779.82525	1412.53624	-710.14696	-729.13897	1360.41667	-562.38339	-736.41925	1355.92348	-592.00370	-745.44901	1320.49544	-378.56544	-786.01369	1103.93863	-325.20702	-749.37271	1139.28042	-276.41058	-653.70711	1125.70152	-297.52784	-534.52878	1065.31507	-339.26048	-541.96458	1039.10549	-311.13040	-751.84282	1333.72872	-783.31760	-735.60600	1104.86877	-821.54398	-707.34850	1149.97108	-865.28308	-599.88509	1125.07597	-841.34696	-493.49598	1076.37786	-795.52491	-499.49417	1046.26744	-822.52402	-1073.63391	983.77082	-473.39501	-1080.67505	990.02824	-680.68835	-1055.83069	1003.47533	-496.61162	-1062.12071	999.38306	-640.57638	
